# xmcd CD database file
#
# Track frame offsets:
#	150
#	20175
#	59425
#	75175
#	104800
#	129225
#	157275
#	181900
#	206850
#
# Disc length: 3029 seconds
#
# Revision: 0
# Processed by: cddbd v1.5.2PL0 Copyright (c) Steve Scherf et al.
# Submitted via: CDex 1.70beta2
#
DISCID=7e0bd309
DTITLE=Ralf-R. Hübner - Moabiter Blues
DYEAR=1991
DGENRE=Jazz
TTITLE0=Schwellenangst
TTITLE1=Luftraum
TTITLE2=Vier Wochen danach
TTITLE3=Moabiter Blues
TTITLE4=Die Tränen der Fische
TTITLE5=Die Tage werden kürzer
TTITLE6=Rapunzel
TTITLE7=Die Zeit der Schwätzer
TTITLE8=Nordlicht
EXTD=YEAR: 1991
EXTT0=
EXTT1=
EXTT2=
EXTT3=
EXTT4=
EXTT5=
EXTT6=
EXTT7=
EXTT8=
PLAYORDER=
